<svg id="visual" viewBox="0 0 900 600" width="900" height="600" xmlns="http://www.w3.org/2000/svg" xmlns:xlink="http://www.w3.org/1999/xlink" version="1.1"><rect x="0" y="0" width="900" height="600" fill="#001b24"></rect><defs><linearGradient id="grad1_0" x1="33.3%" y1="0%" x2="100%" y2="100%"><stop offset="20%" stop-color="#ffce38" stop-opacity="1"></stop><stop offset="80%" stop-color="#ffce38" stop-opacity="1"></stop></linearGradient></defs><defs><linearGradient id="grad1_1" x1="33.3%" y1="0%" x2="100%" y2="100%"><stop offset="20%" stop-color="#ffce38" stop-opacity="1"></stop><stop offset="80%" stop-color="#96b63c" stop-opacity="1"></stop></linearGradient></defs><defs><linearGradient id="grad1_2" x1="33.3%" y1="0%" x2="100%" y2="100%"><stop offset="20%" stop-color="#3a9250" stop-opacity="1"></stop><stop offset="80%" stop-color="#96b63c" stop-opacity="1"></stop></linearGradient></defs><defs><linearGradient id="grad1_3" x1="33.3%" y1="0%" x2="100%" y2="100%"><stop offset="20%" stop-color="#3a9250" stop-opacity="1"></stop><stop offset="80%" stop-color="#006a57" stop-opacity="1"></stop></linearGradient></defs><defs><linearGradient id="grad1_4" x1="33.3%" y1="0%" x2="100%" y2="100%"><stop offset="20%" stop-color="#004147" stop-opacity="1"></stop><stop offset="80%" stop-color="#006a57" stop-opacity="1"></stop></linearGradient></defs><defs><linearGradient id="grad1_5" x1="33.3%" y1="0%" x2="100%" y2="100%"><stop offset="20%" stop-color="#004147" stop-opacity="1"></stop><stop offset="80%" stop-color="#001b24" stop-opacity="1"></stop></linearGradient></defs><defs><linearGradient id="grad2_0" x1="0%" y1="0%" x2="66.7%" y2="100%"><stop offset="20%" stop-color="#ffce38" stop-opacity="1"></stop><stop offset="80%" stop-color="#ffce38" stop-opacity="1"></stop></linearGradient></defs><defs><linearGradient id="grad2_1" x1="0%" y1="0%" x2="66.7%" y2="100%"><stop offset="20%" stop-color="#96b63c" stop-opacity="1"></stop><stop offset="80%" stop-color="#ffce38" stop-opacity="1"></stop></linearGradient></defs><defs><linearGradient id="grad2_2" x1="0%" y1="0%" x2="66.7%" y2="100%"><stop offset="20%" stop-color="#96b63c" stop-opacity="1"></stop><stop offset="80%" stop-color="#3a9250" stop-opacity="1"></stop></linearGradient></defs><defs><linearGradient id="grad2_3" x1="0%" y1="0%" x2="66.7%" y2="100%"><stop offset="20%" stop-color="#006a57" stop-opacity="1"></stop><stop offset="80%" stop-color="#3a9250" stop-opacity="1"></stop></linearGradient></defs><defs><linearGradient id="grad2_4" x1="0%" y1="0%" x2="66.7%" y2="100%"><stop offset="20%" stop-color="#006a57" stop-opacity="1"></stop><stop offset="80%" stop-color="#004147" stop-opacity="1"></stop></linearGradient></defs><defs><linearGradient id="grad2_5" x1="0%" y1="0%" x2="66.7%" y2="100%"><stop offset="20%" stop-color="#001b24" stop-opacity="1"></stop><stop offset="80%" stop-color="#004147" stop-opacity="1"></stop></linearGradient></defs><g transform="translate(900, 0)"><path d="M0 486.7C-34.7 440 -69.5 393.2 -98.6 368C-127.7 342.9 -151.2 339.4 -200.5 347.3C-249.8 355.2 -324.9 374.5 -344.2 344.2C-363.5 313.9 -327.1 233.9 -325.6 188C-324.1 142.1 -357.6 130.2 -390.2 104.6C-422.9 78.9 -454.8 39.5 -486.7 0L0 0Z" fill="#002d37"></path><path d="M0 405.6C-29 366.6 -57.9 327.6 -82.2 306.7C-106.4 285.7 -126 282.8 -167.1 289.4C-208.2 296 -270.7 312.1 -286.8 286.8C-302.9 261.6 -272.6 194.9 -271.4 156.7C-270.1 118.4 -298 108.5 -325.2 87.1C-352.4 65.8 -379 32.9 -405.6 0L0 0Z" fill="#005552"></path><path d="M0 324.5C-23.2 293.3 -46.3 262.1 -65.7 245.3C-85.2 228.6 -100.8 226.2 -133.7 231.5C-166.5 236.8 -216.6 249.7 -229.5 229.5C-242.3 209.2 -218.1 155.9 -217.1 125.3C-216.1 94.7 -238.4 86.8 -260.2 69.7C-281.9 52.6 -303.2 26.3 -324.5 0L0 0Z" fill="#007f56"></path><path d="M0 243.4C-17.4 220 -34.7 196.6 -49.3 184C-63.9 171.4 -75.6 169.7 -100.2 173.6C-124.9 177.6 -162.4 187.3 -172.1 172.1C-181.8 156.9 -163.6 117 -162.8 94C-162.1 71 -178.8 65.1 -195.1 52.3C-211.5 39.5 -227.4 19.7 -243.4 0L0 0Z" fill="#67a547"></path><path d="M0 162.2C-11.6 146.7 -23.2 131.1 -32.9 122.7C-42.6 114.3 -50.4 113.1 -66.8 115.8C-83.3 118.4 -108.3 124.8 -114.7 114.7C-121.2 104.6 -109 78 -108.5 62.7C-108 47.4 -119.2 43.4 -130.1 34.9C-141 26.3 -151.6 13.2 -162.2 0L0 0Z" fill="#c8c435"></path><path d="M0 81.1C-5.8 73.3 -11.6 65.5 -16.4 61.3C-21.3 57.1 -25.2 56.6 -33.4 57.9C-41.6 59.2 -54.1 62.4 -57.4 57.4C-60.6 52.3 -54.5 39 -54.3 31.3C-54 23.7 -59.6 21.7 -65 17.4C-70.5 13.2 -75.8 6.6 -81.1 0L0 0Z" fill="#ffce38"></path></g><g transform="translate(0, 600)"><path d="M0 -486.7C37.9 -467.2 75.8 -447.6 118 -440.5C160.3 -433.4 207 -438.7 243.4 -421.5C279.8 -404.3 306 -364.5 326.7 -326.7C347.4 -288.8 362.6 -252.9 378.5 -218.5C394.3 -184.1 410.7 -151.1 428.9 -114.9C447 -78.7 466.9 -39.4 486.7 0L0 0Z" fill="#002d37"></path><path d="M0 -405.6C31.6 -389.3 63.1 -373 98.4 -367.1C133.6 -361.1 172.5 -365.6 202.8 -351.3C233.2 -336.9 255 -303.8 272.2 -272.2C289.5 -240.7 302.2 -210.8 315.4 -182.1C328.6 -153.4 342.3 -125.9 357.4 -95.8C372.5 -65.6 389.1 -32.8 405.6 0L0 0Z" fill="#005552"></path><path d="M0 -324.5C25.3 -311.4 50.5 -298.4 78.7 -293.6C106.9 -288.9 138 -292.5 162.2 -281C186.5 -269.6 204 -243 217.8 -217.8C231.6 -192.6 241.7 -168.6 252.3 -145.7C262.9 -122.7 273.8 -100.7 285.9 -76.6C298 -52.5 311.3 -26.2 324.5 0L0 0Z" fill="#007f56"></path><path d="M0 -243.4C18.9 -233.6 37.9 -223.8 59 -220.2C80.1 -216.7 103.5 -219.4 121.7 -210.8C139.9 -202.2 153 -182.3 163.3 -163.3C173.7 -144.4 181.3 -126.5 189.2 -109.3C197.1 -92 205.4 -75.5 214.4 -57.5C223.5 -39.4 233.4 -19.7 243.4 0L0 0Z" fill="#67a547"></path><path d="M0 -162.2C12.6 -155.7 25.3 -149.2 39.3 -146.8C53.4 -144.5 69 -146.2 81.1 -140.5C93.3 -134.8 102 -121.5 108.9 -108.9C115.8 -96.3 120.9 -84.3 126.2 -72.8C131.4 -61.4 136.9 -50.4 143 -38.3C149 -26.2 155.6 -13.1 162.2 0L0 0Z" fill="#c8c435"></path><path d="M0 -81.1C6.3 -77.9 12.6 -74.6 19.7 -73.4C26.7 -72.2 34.5 -73.1 40.6 -70.3C46.6 -67.4 51 -60.8 54.4 -54.4C57.9 -48.1 60.4 -42.2 63.1 -36.4C65.7 -30.7 68.5 -25.2 71.5 -19.2C74.5 -13.1 77.8 -6.6 81.1 0L0 0Z" fill="#ffce38"></path></g></svg>